<svg width="100%" height="100%" id="svg" viewBox="0 0 1440 500" xmlns="http://www.w3.org/2000/svg" class="transition duration-300 ease-in-out delay-150"><defs><linearGradient id="gradient" x1="5%" y1="29%" x2="95%" y2="71%"><stop offset="5%" stop-color="#63629288"></stop><stop offset="95%" stop-color="#4a674a88"></stop></linearGradient></defs><path d="M 0,500 C 0,500 0,166 0,166 C 127.89285714285714,179.82142857142856 255.78571428571428,193.64285714285714 370,199 C 484.2142857142857,204.35714285714286 584.75,201.25 688,186 C 791.25,170.75 897.2142857142858,143.35714285714286 1023,138 C 1148.7857142857142,132.64285714285714 1294.392857142857,149.32142857142856 1440,166 C 1440,166 1440,500 1440,500 Z" stroke="none" stroke-width="0" fill="url(#gradient)" class="transition-all duration-300 ease-in-out delay-150 path-0"></path><defs><linearGradient id="gradient" x1="5%" y1="29%" x2="95%" y2="71%"><stop offset="5%" stop-color="#636292ff"></stop><stop offset="95%" stop-color="#4a674aff"></stop></linearGradient></defs><path d="M 0,500 C 0,500 0,333 0,333 C 83.17857142857139,328.8928571428571 166.35714285714278,324.7857142857143 300,312 C 433.6428571428572,299.2142857142857 617.7500000000002,277.75000000000006 759,277 C 900.2499999999998,276.24999999999994 998.6428571428571,296.21428571428567 1105,309 C 1211.357142857143,321.78571428571433 1325.6785714285716,327.39285714285717 1440,333 C 1440,333 1440,500 1440,500 Z" stroke="none" stroke-width="0" fill="url(#gradient)" class="transition-all duration-300 ease-in-out delay-150 path-1"></path></svg>